<svg id="Capa_1" enable-background="new 0 0 512 512" height="512" viewBox="0 0 512 512" width="512" xmlns="http://www.w3.org/2000/svg"><g><g><path d="m256 382.354 185.629 49.929c43.608-45.906 70.371-107.968 70.371-176.283 0-141.385-114.615-256-256-256s-256 114.615-256 256c0 68.315 26.763 130.377 70.371 176.283z" fill="#6aa8ff"/><path d="m153.106 200.116 51.074 51.074-9.368 9.368 36.42 36.42 9.368-9.368 123.937 123.937 77.091 20.736c40.906-43.06 66.987-100.336 70.064-163.654l-185.634-185.636z" fill="#2681ff"/><g><path d="m256 52.989c-53.44 0-96.762 43.322-96.762 96.762v10.538c0 53.44 43.322 96.762 96.762 96.762l47.323-56.758v-50.542z" fill="#606074"/><path d="m256 52.989v204.062c53.44 0 96.762-43.322 96.762-96.762v-10.538c0-53.44-43.322-96.762-96.762-96.762z" fill="#454553"/></g><path d="m256 450.176 28.966-60.031-28.966-65.146-57.93-25.136-97.153 37.821c-18.417 7.169-30.546 24.907-30.546 44.67v49.929c16.366 17.229 35.113 32.17 55.702 44.323z" fill="#00ed89"/><path d="m411.083 337.683-97.149-37.821-57.934 25.137v125.177l129.937 26.424c20.584-12.152 39.328-27.091 55.692-44.317v-49.929c0-19.764-12.129-37.501-30.546-44.671z" fill="#00dc80"/><g><path d="m198.068 299.863 57.932 33.459 37.645-76.22-37.645-42.763h-57.932z" fill="#ffbda9"/><path d="m256 333.322 57.932-33.459v-85.524h-57.932z" fill="#f9a58d"/></g><g><path d="m256 64.573c-48.367 0-87.577 39.209-87.577 87.577v20.594c-1.218-.29-2.482-.461-3.789-.461-9.004 0-16.304 7.299-16.304 16.304 0 9.004 7.299 16.304 16.304 16.304 1.393 0 2.737-.193 4.027-.522 3.314 45.344 41.149 81.102 87.338 81.102l42.831-87.577v-45.744z" fill="#ffccbd"/><path d="m347.366 172.284c-1.307 0-2.571.17-3.789.461v-20.595c0-48.367-39.209-87.577-87.577-87.577v220.898c46.189 0 84.024-35.758 87.338-81.102 1.29.329 2.635.522 4.027.522 9.004 0 16.304-7.299 16.304-16.304 0-9.004-7.299-16.303-16.303-16.303z" fill="#ffbda9"/><path d="m256 239.537c-5.785 0-11.182-3.115-14.084-8.13l-12.982 7.513c5.574 9.633 15.946 15.618 27.066 15.618l10.001-7.968z" fill="#ce5668"/><path d="m283.067 238.919-12.983-7.513c-2.902 5.015-8.298 8.131-14.083 8.131v15c11.12 0 21.492-5.984 27.066-15.618z" fill="#c73c50"/><g><circle cx="216.778" cy="184.95" fill="#606074" r="8.95"/><circle cx="295.222" cy="184.95" fill="#454553" r="8.95"/></g></g><path d="m256 57.791c-52.514 0-95.086 42.92-95.086 95.434h95.086l23.297-69.933z" fill="#606074"/><path d="m385.937 372.058h-129.932l-.005.016-20.455 72.805 20.455 67.121c47.435 0 91.847-12.914 129.937-35.401z" fill="#cfcfdd"/><path d="m286.008 113.276 25.303 39.949h39.775c0-52.514-42.571-95.434-95.086-95.434v95.434h30.008z" fill="#454553"/></g><path d="m126.073 476.605c38.088 22.483 82.496 35.395 129.927 35.395h.005v-139.942h-129.932z" fill="#e2e2eb"/><g><path d="m266.235 444.88-10.23 20.46c-11.3 0-20.46-9.16-20.46-20.46s9.16-20.46 20.46-20.46z" fill="#9e9be1"/><path d="m276.465 444.88c0 11.3-9.16 20.46-20.46 20.46v-40.92c11.3-.001 20.46 9.16 20.46 20.46z" fill="#7974d6"/></g></g></svg>