<svg height="512pt" viewBox="0 0 512 512" width="512pt" xmlns="http://www.w3.org/2000/svg"><path d="m512 256c0 141.386719-114.613281 256-256 256s-256-114.613281-256-256 114.613281-256 256-256 256 114.613281 256 256zm0 0" fill="#46b8fc"/><path d="m24.40625 44.292969v320.941406c40.992188 86.746094 129.285156 146.765625 231.589844 146.765625 62.109375 0 119.046875-22.109375 163.371094-58.902344v-408.804687c0-19.582031-15.871094-35.445313-35.445313-35.445313h-324.074219c-19.570312 0-35.441406 15.863282-35.441406 35.445313zm0 0" fill="#304e87"/><path d="m55.753906 44.292969v371.199219c46.894532 58.816406 119.167969 96.507812 200.242188 96.507812 48.304687 0 93.476562-13.375 132.023437-36.636719v-431.070312c0-2.269531-1.839843-4.097657-4.097656-4.097657h-324.074219c-2.257812 0-4.09375 1.828126-4.09375 4.097657zm0 0" fill="#2f373b"/><path d="m500.445312 260.773438-93.882812 93.886718c-4.253906 4.25-11.535156 1.230469-11.535156-4.789062v-31.617188c0-3.742187-3.019532-6.761718-6.761719-6.761718h-122.722656c-3.730469 0-6.75-3.027344-6.75-6.757813v-97.46875c0-3.742187 3.019531-6.761719 6.75-6.761719h122.722656c3.742187 0 6.761719-3.03125 6.761719-6.761718v-31.617188c0-6.027344 7.28125-9.039062 11.535156-4.785156l93.882812 93.882812c2.632813 2.632813 2.632813 6.917969 0 9.550782zm0 0" fill="#fb3a4a"/><path d="m311.769531 200.503906v110.988282h-46.226562c-3.730469 0-6.75-3.027344-6.75-6.757813v-97.46875c0-3.742187 3.019531-6.761719 6.75-6.761719zm0 0" fill="#dd104f"/><path d="m55.753906 40.195312 4.953125 50.269532 36.066407 365.996094c43.699218 34.765624 99.039062 55.539062 159.222656 55.539062 11.828125 0 23.457031-.804688 34.859375-2.363281v-422.429688l-176.078125-44.753906-8.871094-2.257813zm0 0" fill="#304e87"/><path d="m55.753906 40.195312v375.296876c12.078125 15.160156 25.847656 28.914062 41.019532 40.96875 39.96875 31.796874 89.664062 51.890624 143.914062 55.089843v-424.34375l-139.136719-35.371093zm0 0" fill="#1f3f72"/><path d="m162.332031 326.214844c0 11.839844 7.953125 21.820312 18.808594 24.878906 2.238281.640625 4.609375.984375 7.054687.984375 14.28125 0 25.859376-11.578125 25.859376-25.863281 0-14.28125-11.578126-25.859375-25.859376-25.859375-2.445312 0-4.816406.34375-7.054687.980469-10.855469 3.0625-18.808594 13.042968-18.808594 24.878906zm0 0" fill="#fdae2f"/><path d="m162.332031 326.214844c0 11.839844 7.953125 21.820312 18.808594 24.878906 10.855469-3.058594 18.808594-13.039062 18.808594-24.878906 0-11.835938-7.953125-21.816406-18.808594-24.878906-10.855469 3.0625-18.808594 13.042968-18.808594 24.878906zm0 0" fill="#fecf32"/></svg>